<?xml version="1.0" encoding="utf-8"?>
<!-- Generator: Adobe Illustrator 23.0.3, SVG Export Plug-In . SVG Version: 6.00 Build 0)  -->
<svg version="1.1" id="Warstwa_1" xmlns="http://www.w3.org/2000/svg" xmlns:xlink="http://www.w3.org/1999/xlink" x="0px" y="0px"
	 viewBox="0 0 173.2 200" style="enable-background:new 0 0 173.2 200;" xml:space="preserve">
<style type="text/css">
	.st0{display:none;}
	.st1{display:inline;fill:#61DAFB;}
	.st2{display:inline;fill:#FFFFFF;}
	.st3{display:inline;opacity:4.000000e-02;stroke:#FFFFFF;stroke-miterlimit:10;enable-background:new    ;}
	.st4{display:inline;opacity:8.000000e-02;stroke:#FFFFFF;stroke-miterlimit:10;enable-background:new    ;}
	.st5{display:inline;fill-opacity:0;}
	.st6{fill:#85C556;}
	.st7{fill:#231F20;}
</style>
<g class="st0">
	<polygon class="st1" points="0,150 0,50 86.6,0 173.2,50 173.2,150 86.6,200 	"/>
	<polygon class="st2" points="86.6,133.3 57.7,116.7 57.7,83.3 86.6,66.7 115.5,83.3 144.3,66.7 86.6,33.3 28.9,66.7 28.9,133.3 
		86.6,166.7 144.3,133.3 115.5,116.7 	"/>
	<polygon class="st3" points="0,50 86.6,100 86.6,0 	"/>
	<polygon class="st3" points="0,150 86.6,200 86.6,100 	"/>
	<polygon class="st4" points="86.6,100 173.2,150 173.2,50 	"/>
	<polygon class="st5" points="86.6,100 0,50 0,150 	"/>
	<polygon class="st4" points="173.2,150 86.6,100 86.6,200 	"/>
	<polygon class="st4" points="173.2,50 86.6,0 86.6,100 	"/>
</g>
<g>
	<path class="st6" d="M159.8,53.8c0.3-0.2,0.7-0.4,1.3-0.6c0.7-0.3,0.8-0.2,1.5-0.5c0.3-0.1,0.7-0.3,1.3-0.6c0.6-0.4,1-0.7,1.1-0.6
		c0.1,0.1,0,0.3-0.1,0.5c-0.2,0.5-0.1,0.6-0.2,1.6c-0.3,1.8-0.7,3.5-0.7,3.5c-0.2,0.7-0.6,2-1.3,3.6c-0.7,1.6-1.3,2.7-1.5,2.9
		c-0.7,1.2-1.9,3.2-4.1,5.1c-0.9,0.8-2.6,2.1-5,3.1c-2.9,1.2-5.4,1.4-6.2,1.4c-3.3,0.1-6.8-0.7-6.9-0.7c0,0,0.7-1.6,1.1-2.4
		c0.7-1.5,1.5-2.5,2.4-3.5c0.9-1.1,2-2.4,3.7-3.6c1.2-0.8,1-0.4,4.4-2.3c1.4-0.8,1.9-1.1,3-1.4c0.4-0.1,0.9-0.3,0.9-0.4
		c0-0.1-1.1-0.2-1.9-0.1c-1.1,0.1-1.9,0.3-2.6,0.5c-1,0.3-2.4,0.6-3.8,1.4c-3.9,1.9-6.1,5.1-6.5,5.6c-1.5,2.2-2,4.1-2.6,6
		c-0.9,3.2-1.2,6.8-0.9,8.1c0,0,0.1,0.5,0,0.5c-0.1,0-0.3-0.9-0.9-1.5c-0.9-1.1-2.6-1.1-3.3-1.1c-1.3,0-2.2,0.4-3.5,1
		c-1.4,0.6-1.3,0.8-2.6,1.4c-0.8,0.3-2.1,0.9-3.8,0.9c-1.5,0-2.6-0.3-3.2-0.5c-0.6-0.2-1.6-0.6-2.6-1.5c-1.6-1.3-2.3-2.9-2.9-4.3
		c-1.2-3-0.8-4.9-1.1-6.5c0,0,0-0.3,0-0.3c0.1,0,0.2,0.3,0.5,0.5c0.3,0.3,0.6,0.4,1.1,0.6c0.4,0.1,0.7,0.2,1.3,0.2
		c0.7,0,1.1,0,1.9-0.1c1.4-0.1,1.4,0,2.2-0.1c0.6-0.1,0.6-0.2,2.2-0.6c1.2-0.3,1.8-0.5,2.6-0.6c0.3,0,0.9-0.1,1.8-0.1
		c0.6,0,1.1,0,1.6,0.1c1.1,0.2,1.9,0.8,2.3,1.1c1.5,1.1,2.4,2.7,2.2,2.9c-0.1,0.1-0.2-0.1-0.9-0.3c-0.6-0.2-1.1-0.2-1.8-0.3
		c-0.5,0-0.8,0-1.3-0.1c-0.8,0-1.2,0-1.7,0.1c-1.1,0.1-2,0.6-2.4,0.8c-0.7,0.3-0.5,0.4-1.5,0.9c-0.5,0.3-0.9,0.5-1.4,0.9
		c-0.2,0.2-0.7,0.6-0.6,0.8c0.1,0.1,0.6,0,1.2-0.2c0.4-0.1,1.1-0.2,2.5-0.4c1.6-0.2,2.3-0.3,3.4-0.3c0.4,0,1.3,0,2.5,0.1
		c0.8,0.1,1.3,0.2,1.8,0.3c0.3,0.1,0.6,0.2,1.1,0.4c0.5,0.2,0.9,0.4,0.9,0.4c0.4,0.2,0.6,0.4,0.7,0.3c0.1-0.1-0.1-0.4-0.2-0.7
		c-0.2-0.4-0.3-1-0.5-2.1c-0.2-1.3-0.2-2.5-0.2-3.1c0-1.1,0.1-3.4,1.2-5.7c1.9-4.1,5.5-5.9,6.5-6.4c1.7-0.8,3.4-1.3,5-1.7
		c1.7-0.4,3.1-0.6,3.8-0.7C152,55.2,155.2,54.7,159.8,53.8z"/>
	<path class="st6" d="M58.5,94.1C58.5,94.1,58.8,94.1,58.5,94.1c-3.5,0-6.3,0-6.3,0c0-3.5,2.8-6.3,6.3-6.3
		C58.5,87.9,58.5,87.9,58.5,94.1z"/>
	<path class="st6" d="M46.8,94.5h-1.1c0-7,5.6-12.6,12.5-12.6v1.1C51.9,82.9,46.8,88.1,46.8,94.5z"/>
	<path class="st6" d="M40.6,94.5h-1.1c0-10.3,8.4-18.7,18.7-18.7v1.1C48.5,76.9,40.6,84.8,40.6,94.5z"/>
	<path class="st6" d="M34.2,94.5h-1.1c0-13.4,11.7-25.1,25.1-25.1v1.1C45.4,70.4,34.2,81.7,34.2,94.5z"/>
	<g>
		<path class="st7" d="M21.7,123.9c-1.7,1.3-3.3,2.3-4.9,3c-1.6,0.7-3.4,1-5.3,1c-1.8,0-3.4-0.4-4.7-1.1c-1.4-0.7-2.4-1.7-3.1-2.9
			s-1.1-2.5-1.1-4c0-1.9,0.6-3.6,1.8-4.9c1.2-1.4,2.9-2.3,5-2.7c0.4-0.1,1.6-0.3,3.3-0.7c1.8-0.4,3.3-0.7,4.5-1
			c1.3-0.3,2.6-0.7,4.1-1.1c-0.1-1.9-0.5-3.2-1.1-4.1s-2-1.3-4.1-1.3c-1.8,0-3.1,0.2-4,0.7c-0.9,0.5-1.7,1.2-2.3,2.2s-1.1,1.6-1.4,2
			c-0.3,0.3-0.8,0.5-1.7,0.5c-0.8,0-1.5-0.3-2-0.8s-0.9-1.2-0.9-1.9c0-1.2,0.4-2.4,1.3-3.6c0.9-1.2,2.2-2.1,4.1-2.9
			c1.9-0.8,4.2-1.1,6.9-1.1c3.1,0,5.5,0.4,7.3,1.1c1.8,0.7,3,1.9,3.7,3.5c0.7,1.6,1.1,3.7,1.1,6.3c0,1.6,0,3,0,4.2s0,2.4,0,3.8
			c0,1.3,0.2,2.7,0.7,4.1c0.4,1.4,0.7,2.4,0.7,2.8c0,0.7-0.3,1.4-1,2c-0.7,0.6-1.4,0.9-2.3,0.9c-0.7,0-1.4-0.3-2.1-1
			C23.3,126.2,22.5,125.2,21.7,123.9z M21.3,113.8c-1,0.4-2.5,0.8-4.5,1.2s-3.3,0.7-4.1,0.9c-0.8,0.2-1.5,0.6-2.2,1.2s-1,1.4-1,2.4
			c0,1.1,0.4,2,1.2,2.7s1.9,1.1,3.2,1.1c1.4,0,2.7-0.3,3.8-0.9c1.2-0.6,2-1.4,2.6-2.4c0.6-1.1,1-2.8,1-5.2V113.8z"/>
		<path class="st7" d="M60.4,104.5v20.4c0,2.3-0.2,4.3-0.7,6c-0.5,1.7-1.3,3.1-2.4,4.2c-1.1,1.1-2.5,1.9-4.3,2.4
			c-1.8,0.5-4,0.8-6.6,0.8c-2.4,0-4.6-0.3-6.5-1c-1.9-0.7-3.4-1.6-4.4-2.6s-1.5-2.2-1.5-3.3c0-0.9,0.3-1.6,0.9-2.1s1.3-0.8,2.1-0.8
			c1,0,1.9,0.5,2.7,1.4c0.4,0.5,0.8,0.9,1.2,1.4c0.4,0.5,0.8,0.9,1.3,1.2c0.5,0.3,1.1,0.6,1.8,0.7s1.5,0.2,2.4,0.2
			c1.8,0,3.2-0.3,4.2-0.8c1-0.5,1.7-1.2,2.1-2.1s0.6-1.9,0.7-2.9c0.1-1,0.1-2.7,0.2-5c-1.1,1.5-2.3,2.7-3.7,3.4
			c-1.4,0.8-3.1,1.2-5.1,1.2c-2.3,0-4.4-0.6-6.2-1.8c-1.8-1.2-3.1-2.9-4-5c-0.9-2.2-1.4-4.7-1.4-7.5c0-2.1,0.3-4,0.9-5.7
			s1.4-3.1,2.5-4.3s2.3-2,3.7-2.6c1.4-0.6,2.9-0.9,4.6-0.9c2,0,3.7,0.4,5.2,1.1c1.5,0.8,2.8,2,4.1,3.6v-1c0-1.2,0.3-2.2,0.9-2.8
			c0.6-0.7,1.4-1,2.3-1c1.4,0,2.3,0.4,2.7,1.3C60.2,101.6,60.4,102.8,60.4,104.5z M40.1,113.4c0,2.8,0.6,5,1.9,6.5s2.8,2.2,4.8,2.2
			c1.2,0,2.3-0.3,3.3-0.9c1-0.6,1.9-1.6,2.5-2.8c0.7-1.3,1-2.8,1-4.6c0-2.9-0.6-5.1-1.9-6.7c-1.3-1.6-2.9-2.4-5-2.4
			c-2,0-3.6,0.8-4.8,2.3C40.7,108.4,40.1,110.6,40.1,113.4z"/>
		<path class="st7" d="M92.5,95.9h-8.3v27.4c0,1.6-0.4,2.7-1.1,3.5c-0.7,0.8-1.6,1.1-2.7,1.1c-1.1,0-2.1-0.4-2.8-1.2
			c-0.7-0.8-1.1-1.9-1.1-3.5V95.9h-8.3c-1.3,0-2.3-0.3-2.9-0.9s-1-1.3-1-2.3c0-1,0.3-1.7,1-2.3c0.7-0.6,1.6-0.8,2.9-0.8h24.3
			c1.3,0,2.3,0.3,2.9,0.9c0.6,0.6,1,1.3,1,2.3s-0.3,1.7-1,2.3C94.7,95.6,93.8,95.9,92.5,95.9z"/>
		<path class="st7" d="M125.7,95.5h-17.2v9.3h15.8c1.2,0,2,0.3,2.6,0.8c0.6,0.5,0.9,1.2,0.9,2.1s-0.3,1.6-0.8,2.1
			c-0.6,0.5-1.4,0.8-2.6,0.8h-15.8v10.7h17.8c1.2,0,2.1,0.3,2.7,0.8c0.6,0.6,0.9,1.3,0.9,2.2c0,0.9-0.3,1.6-0.9,2.2
			c-0.6,0.6-1.5,0.8-2.7,0.8h-20.7c-1.7,0-2.9-0.4-3.6-1.1c-0.7-0.7-1.1-1.9-1.1-3.6V94.2c0-1.1,0.2-2,0.5-2.7
			c0.3-0.7,0.8-1.2,1.5-1.5c0.7-0.3,1.6-0.5,2.7-0.5h20.2c1.2,0,2.1,0.3,2.7,0.8c0.6,0.5,0.9,1.2,0.9,2.1c0,0.9-0.3,1.6-0.9,2.1
			C127.9,95.2,126.9,95.5,125.7,95.5z"/>
		<path class="st7" d="M143.7,93.6v13.2l15-15.6c0.7-0.8,1.3-1.3,1.8-1.7c0.5-0.4,1.2-0.5,2-0.5c1.1,0,2,0.3,2.7,1
			c0.7,0.6,1,1.4,1,2.4c0,1.1-0.6,2.2-1.7,3.3l-9.3,8.8l10.7,15.3c0.8,1.1,1.3,2,1.7,2.8c0.4,0.8,0.6,1.6,0.6,2.3
			c0,0.8-0.3,1.6-1,2.2s-1.6,0.9-2.7,0.9c-1.1,0-1.9-0.2-2.6-0.7c-0.7-0.5-1.2-1.1-1.7-1.8s-0.9-1.4-1.2-2.1l-9-13.9l-6.2,6v7.8
			c0,1.6-0.4,2.7-1.1,3.5c-0.7,0.8-1.6,1.1-2.8,1.1c-0.7,0-1.3-0.2-1.9-0.5c-0.6-0.3-1.1-0.8-1.4-1.4c-0.2-0.5-0.4-1-0.4-1.7
			c-0.1-0.6-0.1-1.6-0.1-2.8v-28c0-1.5,0.3-2.7,1-3.5c0.7-0.8,1.6-1.2,2.8-1.2c1.1,0,2.1,0.4,2.8,1.1
			C143.3,90.8,143.7,92,143.7,93.6z"/>
	</g>
	<g>
		<path class="st7" d="M73.6,142.7h-3.4c0,0.4,0.1,0.7,0.2,1.1c0.2,0.3,0.4,0.5,0.6,0.7s0.5,0.2,0.9,0.2c0.2,0,0.4,0,0.6-0.1
			s0.3-0.1,0.5-0.2c0.2-0.1,0.3-0.2,0.4-0.3c0.1-0.1,0.3-0.3,0.5-0.5c0.1-0.1,0.2-0.1,0.4-0.1c0.2,0,0.3,0,0.4,0.1
			c0.1,0.1,0.2,0.2,0.2,0.4c0,0.2-0.1,0.3-0.2,0.6c-0.1,0.2-0.3,0.4-0.6,0.6c-0.3,0.2-0.6,0.4-0.9,0.5c-0.4,0.1-0.8,0.2-1.3,0.2
			c-1.1,0-2-0.3-2.6-1c-0.6-0.6-0.9-1.5-0.9-2.6c0-0.5,0.1-1,0.2-1.4c0.2-0.4,0.4-0.8,0.7-1.1c0.3-0.3,0.7-0.6,1.1-0.7
			s0.9-0.3,1.4-0.3c0.7,0,1.3,0.1,1.8,0.4c0.5,0.3,0.9,0.7,1.1,1.1s0.4,0.9,0.4,1.4c0,0.4-0.1,0.7-0.4,0.9
			C74.5,142.6,74.1,142.7,73.6,142.7z M70.2,141.7h3.2c0-0.6-0.2-1-0.5-1.3c-0.3-0.3-0.7-0.4-1.1-0.4c-0.4,0-0.8,0.2-1.1,0.5
			C70.4,140.6,70.3,141.1,70.2,141.7z"/>
		<path class="st7" d="M81,144.8c-0.4,0.3-0.8,0.6-1.2,0.7c-0.4,0.2-0.8,0.2-1.3,0.2c-0.4,0-0.8-0.1-1.2-0.3
			c-0.3-0.2-0.6-0.4-0.8-0.7s-0.3-0.6-0.3-1c0-0.5,0.2-0.9,0.5-1.2c0.3-0.3,0.7-0.6,1.3-0.7c0.1,0,0.4-0.1,0.8-0.2s0.8-0.2,1.1-0.2
			c0.3-0.1,0.7-0.2,1-0.3c0-0.5-0.1-0.8-0.3-1s-0.5-0.3-1-0.3c-0.4,0-0.8,0.1-1,0.2s-0.4,0.3-0.6,0.6c-0.2,0.2-0.3,0.4-0.3,0.5
			c-0.1,0.1-0.2,0.1-0.4,0.1c-0.2,0-0.4-0.1-0.5-0.2c-0.1-0.1-0.2-0.3-0.2-0.5c0-0.3,0.1-0.6,0.3-0.9c0.2-0.3,0.6-0.5,1-0.7
			c0.5-0.2,1-0.3,1.7-0.3c0.8,0,1.4,0.1,1.8,0.3c0.4,0.2,0.8,0.5,0.9,0.9c0.2,0.4,0.3,0.9,0.3,1.6c0,0.4,0,0.8,0,1c0,0.3,0,0.6,0,1
			c0,0.3,0.1,0.7,0.2,1s0.2,0.6,0.2,0.7c0,0.2-0.1,0.3-0.3,0.5c-0.2,0.1-0.4,0.2-0.6,0.2c-0.2,0-0.4-0.1-0.5-0.3
			C81.4,145.4,81.2,145.1,81,144.8z M80.9,142.3c-0.3,0.1-0.6,0.2-1.1,0.3c-0.5,0.1-0.8,0.2-1,0.2c-0.2,0-0.4,0.1-0.5,0.3
			c-0.2,0.1-0.3,0.3-0.3,0.6c0,0.3,0.1,0.5,0.3,0.7c0.2,0.2,0.5,0.3,0.8,0.3c0.3,0,0.7-0.1,1-0.2s0.5-0.3,0.6-0.6
			c0.2-0.3,0.2-0.7,0.2-1.3V142.3z"/>
		<path class="st7" d="M90,143.5c0,0.5-0.1,0.9-0.4,1.2c-0.2,0.3-0.6,0.6-1,0.8c-0.5,0.2-1,0.3-1.7,0.3c-0.6,0-1.2-0.1-1.6-0.3
			s-0.8-0.4-1-0.7s-0.3-0.6-0.3-0.9c0-0.2,0.1-0.4,0.2-0.5c0.1-0.1,0.3-0.2,0.5-0.2c0.2,0,0.3,0,0.4,0.1c0.1,0.1,0.2,0.2,0.3,0.4
			c0.2,0.3,0.4,0.5,0.6,0.7c0.3,0.2,0.6,0.2,1,0.2c0.4,0,0.6-0.1,0.9-0.2c0.2-0.2,0.3-0.3,0.3-0.5c0-0.3-0.1-0.5-0.4-0.7
			c-0.2-0.1-0.6-0.3-1.2-0.4c-0.6-0.1-1.1-0.3-1.5-0.5c-0.4-0.2-0.7-0.4-0.9-0.7c-0.2-0.3-0.3-0.6-0.3-1c0-0.4,0.1-0.7,0.3-1
			c0.2-0.3,0.5-0.6,0.9-0.7c0.4-0.2,0.9-0.3,1.5-0.3c0.5,0,0.9,0,1.2,0.1c0.4,0.1,0.7,0.2,0.9,0.4s0.4,0.3,0.6,0.5
			c0.1,0.2,0.2,0.4,0.2,0.6c0,0.2-0.1,0.4-0.2,0.5c-0.1,0.1-0.3,0.2-0.6,0.2c-0.2,0-0.3-0.1-0.5-0.2c-0.1-0.1-0.3-0.3-0.4-0.5
			c-0.1-0.2-0.3-0.3-0.5-0.4c-0.2-0.1-0.4-0.2-0.7-0.2c-0.3,0-0.6,0.1-0.8,0.2s-0.3,0.3-0.3,0.5c0,0.2,0.1,0.3,0.2,0.5
			c0.2,0.1,0.4,0.2,0.6,0.3s0.6,0.2,1.1,0.3c0.5,0.1,1,0.3,1.3,0.5c0.3,0.2,0.6,0.4,0.8,0.7C89.9,142.9,90,143.2,90,143.5z"/>
		<path class="st7" d="M93.1,146l0.2-0.4l-2.2-5.4c-0.1-0.3-0.2-0.5-0.2-0.7c0-0.1,0-0.3,0.1-0.4c0.1-0.1,0.2-0.2,0.3-0.3
			c0.1-0.1,0.3-0.1,0.4-0.1c0.3,0,0.4,0.1,0.6,0.2c0.1,0.2,0.2,0.4,0.3,0.7l1.5,4.3l1.4-4c0.1-0.3,0.2-0.6,0.3-0.8s0.2-0.3,0.3-0.4
			c0.1-0.1,0.2-0.1,0.4-0.1c0.1,0,0.3,0,0.4,0.1s0.2,0.2,0.3,0.3c0.1,0.1,0.1,0.2,0.1,0.4c0,0.1,0,0.2-0.1,0.3
			c0,0.1-0.1,0.3-0.1,0.5l-2.3,6c-0.2,0.5-0.4,0.9-0.6,1.2c-0.2,0.3-0.4,0.5-0.7,0.7c-0.3,0.2-0.7,0.2-1.3,0.2
			c-0.5,0-0.9-0.1-1.2-0.2c-0.3-0.1-0.4-0.3-0.4-0.6c0-0.2,0.1-0.4,0.2-0.5c0.1-0.1,0.3-0.2,0.5-0.2c0.1,0,0.2,0,0.3,0
			c0.1,0,0.2,0,0.3,0c0.2,0,0.4,0,0.5-0.1c0.1-0.1,0.2-0.2,0.3-0.3S93,146.3,93.1,146z"/>
		<path class="st7" d="M106.4,144.8c-0.4,0.3-0.8,0.6-1.2,0.7c-0.4,0.2-0.8,0.2-1.3,0.2c-0.4,0-0.8-0.1-1.2-0.3
			c-0.3-0.2-0.6-0.4-0.8-0.7s-0.3-0.6-0.3-1c0-0.5,0.2-0.9,0.5-1.2s0.7-0.6,1.3-0.7c0.1,0,0.4-0.1,0.8-0.2s0.8-0.2,1.1-0.2
			c0.3-0.1,0.7-0.2,1-0.3c0-0.5-0.1-0.8-0.3-1s-0.5-0.3-1-0.3c-0.4,0-0.8,0.1-1,0.2c-0.2,0.1-0.4,0.3-0.6,0.6
			c-0.2,0.2-0.3,0.4-0.3,0.5c-0.1,0.1-0.2,0.1-0.4,0.1c-0.2,0-0.4-0.1-0.5-0.2c-0.1-0.1-0.2-0.3-0.2-0.5c0-0.3,0.1-0.6,0.3-0.9
			c0.2-0.3,0.6-0.5,1-0.7c0.5-0.2,1-0.3,1.7-0.3c0.8,0,1.4,0.1,1.8,0.3c0.4,0.2,0.8,0.5,0.9,0.9c0.2,0.4,0.3,0.9,0.3,1.6
			c0,0.4,0,0.8,0,1c0,0.3,0,0.6,0,1c0,0.3,0.1,0.7,0.2,1s0.2,0.6,0.2,0.7c0,0.2-0.1,0.3-0.3,0.5c-0.2,0.1-0.4,0.2-0.6,0.2
			c-0.2,0-0.4-0.1-0.5-0.3C106.8,145.4,106.6,145.1,106.4,144.8z M106.3,142.3c-0.3,0.1-0.6,0.2-1.1,0.3c-0.5,0.1-0.8,0.2-1,0.2
			c-0.2,0-0.4,0.1-0.5,0.3c-0.2,0.1-0.3,0.3-0.3,0.6c0,0.3,0.1,0.5,0.3,0.7c0.2,0.2,0.5,0.3,0.8,0.3c0.3,0,0.7-0.1,1-0.2
			s0.5-0.3,0.6-0.6c0.2-0.3,0.2-0.7,0.2-1.3V142.3z"/>
		<path class="st7" d="M116,139.9v5.1c0,0.6-0.1,1.1-0.2,1.5c-0.1,0.4-0.3,0.8-0.6,1c-0.3,0.3-0.6,0.5-1.1,0.6
			c-0.4,0.1-1,0.2-1.7,0.2c-0.6,0-1.1-0.1-1.6-0.3s-0.8-0.4-1.1-0.7c-0.3-0.3-0.4-0.5-0.4-0.8c0-0.2,0.1-0.4,0.2-0.5
			c0.1-0.1,0.3-0.2,0.5-0.2c0.3,0,0.5,0.1,0.7,0.3c0.1,0.1,0.2,0.2,0.3,0.4s0.2,0.2,0.3,0.3c0.1,0.1,0.3,0.1,0.4,0.2
			c0.2,0,0.4,0.1,0.6,0.1c0.5,0,0.8-0.1,1.1-0.2s0.4-0.3,0.5-0.5s0.2-0.5,0.2-0.7c0-0.3,0-0.7,0-1.2c-0.3,0.4-0.6,0.7-0.9,0.9
			c-0.4,0.2-0.8,0.3-1.3,0.3c-0.6,0-1.1-0.1-1.5-0.4c-0.4-0.3-0.8-0.7-1-1.3c-0.2-0.5-0.4-1.2-0.4-1.9c0-0.5,0.1-1,0.2-1.4
			s0.3-0.8,0.6-1.1c0.3-0.3,0.6-0.5,0.9-0.7c0.3-0.1,0.7-0.2,1.1-0.2c0.5,0,0.9,0.1,1.3,0.3s0.7,0.5,1,0.9v-0.2
			c0-0.3,0.1-0.5,0.2-0.7c0.1-0.2,0.3-0.3,0.6-0.3c0.3,0,0.6,0.1,0.7,0.3C116,139.2,116,139.5,116,139.9z M111,142.2
			c0,0.7,0.2,1.2,0.5,1.6s0.7,0.5,1.2,0.5c0.3,0,0.6-0.1,0.8-0.2s0.5-0.4,0.6-0.7s0.2-0.7,0.2-1.1c0-0.7-0.2-1.3-0.5-1.7
			c-0.3-0.4-0.7-0.6-1.2-0.6c-0.5,0-0.9,0.2-1.2,0.6S111,141.5,111,142.2z"/>
		<path class="st7" d="M119.4,143.3v1.5c0,0.4-0.1,0.6-0.3,0.8c-0.2,0.2-0.4,0.3-0.6,0.3c-0.3,0-0.5-0.1-0.6-0.3s-0.2-0.4-0.2-0.8
			v-4.9c0-0.8,0.3-1.2,0.9-1.2c0.3,0,0.5,0.1,0.6,0.3c0.1,0.2,0.2,0.5,0.2,0.8c0.2-0.4,0.4-0.6,0.6-0.8c0.2-0.2,0.5-0.3,0.9-0.3
			c0.4,0,0.7,0.1,1.1,0.3c0.3,0.2,0.5,0.4,0.5,0.7c0,0.2-0.1,0.4-0.2,0.5c-0.1,0.1-0.3,0.2-0.5,0.2c-0.1,0-0.2,0-0.5-0.1
			c-0.2-0.1-0.5-0.1-0.7-0.1c-0.3,0-0.5,0.1-0.6,0.2c-0.2,0.1-0.3,0.3-0.4,0.6c-0.1,0.3-0.2,0.6-0.2,0.9
			C119.4,142.3,119.4,142.7,119.4,143.3z"/>
		<path class="st7" d="M124.3,137.8c-0.2,0-0.5-0.1-0.6-0.2c-0.2-0.1-0.3-0.4-0.3-0.6c0-0.2,0.1-0.5,0.3-0.6
			c0.2-0.2,0.4-0.2,0.6-0.2c0.2,0,0.4,0.1,0.6,0.2c0.2,0.1,0.3,0.4,0.3,0.6c0,0.3-0.1,0.5-0.3,0.6S124.5,137.8,124.3,137.8z
			 M125.2,139.7v5.1c0,0.4-0.1,0.6-0.3,0.8c-0.2,0.2-0.4,0.3-0.6,0.3c-0.3,0-0.5-0.1-0.6-0.3c-0.2-0.2-0.2-0.4-0.2-0.8v-5
			c0-0.3,0.1-0.6,0.2-0.8s0.4-0.3,0.6-0.3c0.3,0,0.5,0.1,0.6,0.3C125.1,139.1,125.2,139.3,125.2,139.7z"/>
		<path class="st7" d="M133.3,143.6c0,0.2-0.1,0.5-0.2,0.7c-0.1,0.2-0.3,0.5-0.6,0.7c-0.3,0.2-0.6,0.4-1,0.5s-0.9,0.2-1.4,0.2
			c-1.1,0-1.9-0.3-2.5-0.9s-0.9-1.5-0.9-2.5c0-0.7,0.1-1.4,0.4-1.9c0.3-0.6,0.7-1,1.2-1.3c0.5-0.3,1.2-0.5,1.9-0.5
			c0.5,0,0.9,0.1,1.2,0.2c0.4,0.1,0.7,0.3,1,0.5c0.3,0.2,0.5,0.4,0.6,0.7c0.1,0.2,0.2,0.5,0.2,0.7c0,0.2-0.1,0.4-0.2,0.5
			s-0.3,0.2-0.6,0.2c-0.1,0-0.3,0-0.4-0.1c-0.1-0.1-0.2-0.2-0.3-0.4c-0.2-0.3-0.4-0.6-0.7-0.7s-0.5-0.2-0.9-0.2
			c-0.5,0-0.9,0.2-1.3,0.6c-0.3,0.4-0.5,1-0.5,1.7c0,0.3,0,0.6,0.1,0.9s0.2,0.5,0.4,0.7s0.3,0.3,0.6,0.4c0.2,0.1,0.5,0.2,0.7,0.2
			c0.4,0,0.7-0.1,0.9-0.2s0.5-0.4,0.7-0.7c0.1-0.2,0.2-0.4,0.3-0.5c0.1-0.1,0.3-0.2,0.5-0.2c0.2,0,0.4,0.1,0.5,0.2
			C133.2,143.3,133.3,143.4,133.3,143.6z"/>
		<path class="st7" d="M139.4,144.8v-0.2c-0.2,0.3-0.4,0.5-0.7,0.7c-0.2,0.2-0.5,0.3-0.8,0.4c-0.3,0.1-0.6,0.1-0.9,0.1
			c-0.4,0-0.8-0.1-1.1-0.3c-0.3-0.2-0.6-0.4-0.8-0.7c-0.2-0.4-0.3-0.9-0.3-1.6v-3.5c0-0.4,0.1-0.6,0.2-0.8c0.2-0.2,0.4-0.3,0.6-0.3
			c0.3,0,0.5,0.1,0.6,0.3c0.2,0.2,0.2,0.4,0.2,0.8v2.8c0,0.4,0,0.7,0.1,1c0.1,0.3,0.2,0.5,0.4,0.6c0.2,0.2,0.4,0.2,0.7,0.2
			c0.3,0,0.6-0.1,0.8-0.3c0.3-0.2,0.5-0.4,0.6-0.7c0.1-0.2,0.1-0.8,0.1-1.6v-2.1c0-0.3,0.1-0.6,0.2-0.8s0.4-0.3,0.6-0.3
			s0.5,0.1,0.6,0.3c0.2,0.2,0.2,0.4,0.2,0.8v5.1c0,0.3-0.1,0.6-0.2,0.8s-0.3,0.3-0.6,0.3s-0.4-0.1-0.6-0.3
			C139.4,145.4,139.4,145.1,139.4,144.8z"/>
		<path class="st7" d="M142.8,144.7v-7.6c0-0.4,0.1-0.6,0.2-0.8s0.4-0.3,0.6-0.3c0.3,0,0.5,0.1,0.6,0.3c0.2,0.2,0.2,0.4,0.2,0.8v7.6
			c0,0.4-0.1,0.6-0.2,0.8c-0.2,0.2-0.4,0.3-0.6,0.3c-0.3,0-0.5-0.1-0.6-0.3C142.8,145.3,142.8,145.1,142.8,144.7z"/>
		<path class="st7" d="M146.4,138.8h0.2v-1.1c0-0.3,0-0.5,0-0.7c0-0.2,0.1-0.3,0.1-0.4c0.1-0.1,0.2-0.2,0.3-0.3
			c0.1-0.1,0.3-0.1,0.4-0.1c0.2,0,0.4,0.1,0.6,0.3c0.1,0.1,0.2,0.2,0.2,0.4c0,0.2,0,0.4,0,0.7v1.2h0.6c0.2,0,0.4,0.1,0.6,0.2
			c0.1,0.1,0.2,0.3,0.2,0.5c0,0.2-0.1,0.4-0.3,0.5c-0.2,0.1-0.5,0.1-0.8,0.1h-0.3v3.2c0,0.3,0,0.5,0,0.6c0,0.1,0.1,0.3,0.2,0.4
			c0.1,0.1,0.2,0.1,0.4,0.1c0.1,0,0.2,0,0.4-0.1s0.3-0.1,0.4-0.1c0.1,0,0.3,0.1,0.4,0.2s0.2,0.3,0.2,0.4c0,0.3-0.2,0.5-0.5,0.6
			c-0.3,0.1-0.8,0.2-1.3,0.2c-0.5,0-1-0.1-1.2-0.3c-0.3-0.2-0.5-0.4-0.6-0.8s-0.1-0.8-0.1-1.3v-3.4h-0.2c-0.3,0-0.4-0.1-0.6-0.2
			c-0.1-0.1-0.2-0.3-0.2-0.5s0.1-0.3,0.2-0.5C145.9,138.9,146.1,138.8,146.4,138.8z"/>
		<path class="st7" d="M155.5,144.8v-0.2c-0.2,0.3-0.4,0.5-0.7,0.7c-0.2,0.2-0.5,0.3-0.8,0.4c-0.3,0.1-0.6,0.1-0.9,0.1
			c-0.4,0-0.8-0.1-1.1-0.3c-0.3-0.2-0.6-0.4-0.8-0.7c-0.2-0.4-0.3-0.9-0.3-1.6v-3.5c0-0.4,0.1-0.6,0.2-0.8c0.2-0.2,0.4-0.3,0.6-0.3
			c0.3,0,0.5,0.1,0.6,0.3s0.2,0.4,0.2,0.8v2.8c0,0.4,0,0.7,0.1,1c0.1,0.3,0.2,0.5,0.4,0.6c0.2,0.2,0.4,0.2,0.7,0.2
			c0.3,0,0.6-0.1,0.8-0.3c0.3-0.2,0.5-0.4,0.6-0.7c0.1-0.2,0.1-0.8,0.1-1.6v-2.1c0-0.3,0.1-0.6,0.2-0.8s0.4-0.3,0.6-0.3
			s0.5,0.1,0.6,0.3c0.2,0.2,0.2,0.4,0.2,0.8v5.1c0,0.3-0.1,0.6-0.2,0.8s-0.3,0.3-0.6,0.3s-0.4-0.1-0.6-0.3
			C155.6,145.4,155.5,145.1,155.5,144.8z"/>
		<path class="st7" d="M160.7,143.3v1.5c0,0.4-0.1,0.6-0.3,0.8c-0.2,0.2-0.4,0.3-0.6,0.3c-0.3,0-0.5-0.1-0.6-0.3s-0.2-0.4-0.2-0.8
			v-4.9c0-0.8,0.3-1.2,0.9-1.2c0.3,0,0.5,0.1,0.6,0.3c0.1,0.2,0.2,0.5,0.2,0.8c0.2-0.4,0.4-0.6,0.6-0.8c0.2-0.2,0.5-0.3,0.9-0.3
			s0.7,0.1,1.1,0.3c0.3,0.2,0.5,0.4,0.5,0.7c0,0.2-0.1,0.4-0.2,0.5c-0.1,0.1-0.3,0.2-0.5,0.2c-0.1,0-0.2,0-0.5-0.1
			c-0.2-0.1-0.5-0.1-0.7-0.1c-0.3,0-0.5,0.1-0.6,0.2c-0.2,0.1-0.3,0.3-0.4,0.6c-0.1,0.3-0.2,0.6-0.2,0.9
			C160.7,142.3,160.7,142.7,160.7,143.3z"/>
		<path class="st7" d="M169.3,142.7h-3.4c0,0.4,0.1,0.7,0.2,1.1s0.4,0.5,0.6,0.7c0.3,0.2,0.5,0.2,0.9,0.2c0.2,0,0.4,0,0.6-0.1
			s0.3-0.1,0.5-0.2c0.2-0.1,0.3-0.2,0.4-0.3s0.3-0.3,0.5-0.5c0.1-0.1,0.2-0.1,0.4-0.1c0.2,0,0.3,0,0.4,0.1c0.1,0.1,0.2,0.2,0.2,0.4
			c0,0.2-0.1,0.3-0.2,0.6c-0.1,0.2-0.3,0.4-0.6,0.6c-0.3,0.2-0.6,0.4-0.9,0.5c-0.4,0.1-0.8,0.2-1.3,0.2c-1.1,0-2-0.3-2.6-1
			s-0.9-1.5-0.9-2.6c0-0.5,0.1-1,0.2-1.4c0.2-0.4,0.4-0.8,0.7-1.1s0.7-0.6,1.1-0.7c0.4-0.2,0.9-0.3,1.4-0.3c0.7,0,1.3,0.1,1.8,0.4
			s0.9,0.7,1.1,1.1s0.4,0.9,0.4,1.4c0,0.4-0.1,0.7-0.4,0.9C170.1,142.6,169.7,142.7,169.3,142.7z M165.8,141.7h3.2
			c0-0.6-0.2-1-0.5-1.3c-0.3-0.3-0.7-0.4-1.1-0.4c-0.4,0-0.8,0.2-1.1,0.5C166.1,140.6,165.9,141.1,165.8,141.7z"/>
	</g>
</g>
</svg>
